<svg version="1.1" xmlns="http://www.w3.org/2000/svg" xmlns:xlink="http://www.w3.org/1999/xlink" x="0px" y="0px" viewBox="0 0 47.224 45.821" style="enable-background:new 0 0 47.224 45.821;" xml:space="preserve">
<g id="movie-cut-scene-shooting">
<path d="M46.224,15.821H16.313l29.536-4.101c0.262-0.038,0.5-0.132,0.659-0.345c0.16-0.212,0.228-0.456,0.191-0.719l-1.124-7.91
		c-0.232-1.637-1.753-2.774-3.392-2.543L2.58,5.825C1.786,5.938,1.084,6.354,0.602,6.995S-0.082,8.426,0.03,9.219l1.012,7.921
		C1.052,17.211,1,17.273,1,17.339V27v16c0,1.654,1.569,2.821,3.224,2.821h40C45.878,45.821,47,44.654,47,43V27V17
		C47,16.448,46.776,15.821,46.224,15.821z M19.415,13.54l-6.111,0.867l6.797-9.044l6.112-0.867L19.415,13.54z M29.012,4.098
		l6.111-0.867l-6.797,9.045l-6.111,0.867L29.012,4.098z M10.504,14.804l-6.111,0.867l6.797-9.044l6.111-0.867L10.504,14.804z
		 M3,18.414l7.809,7.407H3V18.414z M13.638,25.821l-8-8h6.172l8,8H13.638z M22.638,25.821l-8-8h6.172l8,8H22.638z M31.638,25.821
		l-8-8h6.172l8,8H31.638z M40.638,25.821l-8-8h6.172L45,24.414v1.407H40.638z M45,21.586l-3.362-3.765H45V21.586z M40.036,10.614
		l3.897-5.185l0.645,4.541L40.036,10.614z M42.463,2.189c0.047-0.007,0.094-0.01,0.141-0.01c0.37,0,0.704,0.207,0.877,0.523
		l-6.244,8.309l-6.111,0.867l6.797-9.045L42.463,2.189z M2.201,8.198C2.362,7.984,2.596,7.846,2.86,7.809l5.53-0.785l-5.595,7.445
		L2.011,8.938C1.973,8.674,2.04,8.411,2.201,8.198z M44.224,43.821h-40C3.672,43.821,3,43.551,3,43V27.821h42V43
		C45,43.551,44.775,43.821,44.224,43.821z" id="id_101" style="fill: rgb(255, 255, 255);"></path>
<rect x="29.224" y="40" width="2" height="2" id="id_102" style="fill: rgb(255, 255, 255);"></rect>
<rect x="33.224" y="40" width="2" height="2" id="id_103" style="fill: rgb(255, 255, 255);"></rect>
<rect x="37.224" y="40" width="2" height="2" id="id_104" style="fill: rgb(255, 255, 255);"></rect>
<rect x="41.224" y="40" width="2" height="2" id="id_105" style="fill: rgb(255, 255, 255);"></rect>
</g>
<g id="Layer_1">
</g>
</svg>