<svg xmlns="http://www.w3.org/2000/svg" xmlns:xlink="http://www.w3.org/1999/xlink" width="1920" zoomAndPan="magnify" viewBox="0 0 1440 809.999993" height="1080" preserveAspectRatio="xMidYMid meet" version="1.0"><defs><g/></defs><path fill="#ffffff" d="M 1033.800781 344.179688 L 1033.800781 722.136719 C 1033.800781 722.589844 1033.757812 723.035156 1033.667969 723.476562 C 1033.582031 723.917969 1033.453125 724.347656 1033.277344 724.765625 C 1033.105469 725.179688 1032.894531 725.574219 1032.644531 725.949219 C 1032.394531 726.324219 1032.109375 726.671875 1031.792969 726.988281 C 1031.472656 727.308594 1031.125 727.59375 1030.75 727.84375 C 1030.375 728.09375 1029.980469 728.304688 1029.566406 728.476562 C 1029.148438 728.648438 1028.71875 728.78125 1028.277344 728.867188 C 1027.835938 728.957031 1027.390625 729 1026.9375 729 L 440.113281 729 C 439.660156 729 439.214844 728.957031 438.773438 728.867188 C 438.332031 728.78125 437.902344 728.648438 437.484375 728.476562 C 437.070312 728.304688 436.675781 728.09375 436.300781 727.84375 C 435.925781 727.59375 435.578125 727.308594 435.257812 726.988281 C 434.941406 726.671875 434.65625 726.324219 434.40625 725.949219 C 434.15625 725.574219 433.945312 725.179688 433.773438 724.765625 C 433.597656 724.347656 433.46875 723.917969 433.382812 723.476562 C 433.292969 723.035156 433.25 722.589844 433.25 722.136719 L 433.25 344.179688 C 433.265625 342.941406 433.585938 341.785156 434.21875 340.71875 L 433.832031 340.394531 L 433.507812 340.136719 C 433.289062 339.953125 433.09375 339.75 432.925781 339.519531 L 432.632812 339.195312 L 432.148438 338.453125 C 432.074219 338.355469 432.019531 338.246094 431.988281 338.128906 C 431.785156 337.757812 431.625 337.367188 431.5 336.964844 L 407.222656 252.546875 C 407.097656 252.117188 407.015625 251.675781 406.980469 251.226562 C 406.941406 250.777344 406.949219 250.332031 407 249.882812 C 407.050781 249.4375 407.144531 249 407.28125 248.570312 C 407.417969 248.140625 407.597656 247.730469 407.816406 247.339844 C 408.03125 246.945312 408.285156 246.574219 408.578125 246.230469 C 408.867188 245.886719 409.1875 245.578125 409.539062 245.296875 C 409.890625 245.015625 410.269531 244.773438 410.667969 244.566406 C 411.066406 244.359375 411.484375 244.191406 411.914062 244.066406 L 458.597656 230.539062 L 511.332031 215.390625 L 557.625 202.085938 L 624.671875 182.667969 L 664.070312 171.339844 L 715.703125 156.742188 L 742.734375 148.941406 L 815.996094 127.902344 L 822.921875 125.894531 L 918.910156 98.316406 L 969.800781 83.652344 L 975.917969 81.90625 C 976.351562 81.78125 976.792969 81.703125 977.238281 81.664062 C 977.6875 81.628906 978.136719 81.632812 978.582031 81.6875 C 979.03125 81.738281 979.46875 81.832031 979.898438 81.96875 C 980.324219 82.105469 980.738281 82.28125 981.128906 82.5 C 981.523438 82.71875 981.890625 82.972656 982.234375 83.261719 C 982.578125 83.550781 982.890625 83.875 983.171875 84.226562 C 983.453125 84.578125 983.695312 84.953125 983.902344 85.351562 C 984.109375 85.75 984.277344 86.167969 984.402344 86.601562 L 1008.648438 171.015625 C 1008.886719 171.898438 1008.941406 172.792969 1008.8125 173.695312 C 1008.683594 174.601562 1008.378906 175.445312 1007.902344 176.226562 C 1007.460938 177.011719 1006.890625 177.683594 1006.183594 178.246094 C 1005.476562 178.804688 1004.691406 179.210938 1003.824219 179.460938 L 964.945312 190.726562 L 914.019531 205.355469 L 861.996094 220.308594 L 857.078125 221.734375 L 646.070312 282.328125 L 608.324219 293.203125 L 557.367188 307.832031 L 540.855469 312.589844 L 455.070312 337.351562 L 1026.9375 337.351562 C 1027.386719 337.351562 1027.832031 337.394531 1028.273438 337.484375 C 1028.714844 337.570312 1029.140625 337.699219 1029.558594 337.871094 C 1029.972656 338.042969 1030.367188 338.253906 1030.742188 338.5 C 1031.117188 338.75 1031.460938 339.03125 1031.78125 339.351562 C 1032.097656 339.667969 1032.382812 340.011719 1032.632812 340.382812 C 1032.882812 340.757812 1033.097656 341.152344 1033.269531 341.566406 C 1033.445312 341.980469 1033.574219 342.40625 1033.664062 342.847656 C 1033.753906 343.289062 1033.800781 343.730469 1033.800781 344.179688 Z M 928.6875 425.101562 L 957.59375 351.011719 L 918.199219 351.011719 L 889.289062 425.164062 Z M 821.628906 425.101562 L 850.539062 351.011719 L 813.664062 351.011719 L 784.753906 425.164062 Z M 717.257812 425.101562 L 746.167969 351.011719 L 707.15625 351.011719 L 678.25 425.164062 Z M 610.589844 425.101562 L 639.496094 351.011719 L 601.199219 351.011719 L 572.292969 425.164062 Z M 504.597656 425.101562 L 533.507812 350.945312 L 493.367188 350.945312 L 464.457031 425.101562 Z M 913.050781 114.242188 L 875.171875 125.148438 L 867.890625 204.351562 L 905.765625 193.476562 Z M 810.136719 143.824219 L 774.816406 153.957031 L 767.535156 233.191406 L 802.851562 223.0625 Z M 709.78125 172.664062 L 672.292969 183.445312 L 665.007812 262.679688 L 702.5625 251.902344 Z M 607.285156 202.152344 L 570.445312 212.734375 L 563.226562 292.035156 L 600.003906 281.386719 Z M 505.410156 231.28125 L 466.820312 242.386719 L 459.535156 321.621094 L 498.125 310.519531 Z M 996.347656 425.164062 L 1020.109375 425.164062 L 1020.109375 364.28125 Z M 976.921875 109.742188 L 970.933594 174.769531 L 993.59375 168.296875 Z M 1020.109375 715.308594 L 1020.109375 438.855469 L 447.105469 438.855469 L 447.105469 715.308594 Z M 1020.109375 715.308594 " fill-opacity="1" fill-rule="nonzero"/><g fill="#ffffff" fill-opacity="1"><g transform="translate(493.901992, 601.692182)"><g><path d="M 22.300781 0 L 22.300781 -27.300781 L 36.097656 -27.300781 C 63.796875 -27.300781 63.898438 -71.398438 36.097656 -71.398438 L 8 -71.398438 L 8 0 Z M 22.300781 -41.199219 L 22.300781 -57.199219 L 34.898438 -57.199219 C 44.5 -57.199219 44.5 -41.199219 34.898438 -41.199219 Z M 22.300781 -41.199219 "/></g></g></g><g fill="#ffffff" fill-opacity="1"><g transform="translate(554.199673, 601.692182)"><g><path d="M 1.601562 0 L 17.800781 0 L 20.597656 -7.699219 L 44.300781 -7.699219 L 47.199219 0 L 63.296875 0 L 33.199219 -74.097656 L 31.699219 -74.097656 Z M 25.800781 -21.097656 L 32.5 -39.699219 L 39 -21.097656 Z M 25.800781 -21.097656 "/></g></g></g><g fill="#ffffff" fill-opacity="1"><g transform="translate(619.497151, 601.692182)"><g><path d="M 22.300781 -38.898438 L 58.5 1.5 L 62.296875 1.5 L 62.296875 -71.398438 L 47.898438 -71.398438 L 47.898438 -31 L 11.800781 -73 L 8 -73 L 8 0 L 22.300781 0 Z M 22.300781 -38.898438 "/></g></g></g><g fill="#ffffff" fill-opacity="1"><g transform="translate(689.894437, 601.692182)"><g><path d="M 29.300781 -71.5 L 8 -71.5 L 8 0 L 29.300781 0 C 76.898438 0 76.898438 -71.5 29.300781 -71.5 Z M 29.300781 -57.199219 C 57.097656 -57.199219 57.097656 -14.300781 29.300781 -14.300781 L 22.300781 -14.300781 L 22.300781 -57.199219 Z M 29.300781 -57.199219 "/></g></g></g><g fill="#ffffff" fill-opacity="1"><g transform="translate(760.291734, 601.692182)"><g><path d="M 42.398438 1 C 91.597656 1 91.597656 -72.699219 42.398438 -72.699219 C -6.800781 -72.699219 -6.800781 1 42.398438 1 Z M 42.398438 -13.800781 C 13.800781 -13.800781 13.800781 -58 42.398438 -58 C 71 -58 71 -13.800781 42.398438 -13.800781 Z M 42.398438 -13.800781 "/></g></g></g><g fill="#ffffff" fill-opacity="1"><g transform="translate(844.988469, 601.692182)"><g><path d="M 43.597656 0 L 59.796875 0 L 43.199219 -29.5 C 64.199219 -35.597656 61.699219 -71.5 36.199219 -71.5 L 8 -71.5 L 8 0 L 22.300781 0 L 22.300781 -27.300781 L 29.199219 -27.300781 Z M 22.300781 -41.199219 L 22.300781 -57.199219 L 34.898438 -57.199219 C 44.597656 -57.199219 44.597656 -41.199219 34.898438 -41.199219 Z M 22.300781 -41.199219 "/></g></g></g><g fill="#ffffff" fill-opacity="1"><g transform="translate(906.286112, 601.692182)"><g><path d="M 1.601562 0 L 17.800781 0 L 20.597656 -7.699219 L 44.300781 -7.699219 L 47.199219 0 L 63.296875 0 L 33.199219 -74.097656 L 31.699219 -74.097656 Z M 25.800781 -21.097656 L 32.5 -39.699219 L 39 -21.097656 Z M 25.800781 -21.097656 "/></g></g></g></svg>