<svg version="1.1" xmlns="http://www.w3.org/2000/svg" xmlns:xlink="http://www.w3.org/1999/xlink" x="0px" y="0px" viewBox="0 0 50 50" style="enable-background:new 0 0 50 50;" xml:space="preserve">
<g id="Layer_1">
<path d="M1,49h48V1H1V49z M3,3h44v44H3V3z" id="id_101" style="fill: rgb(252, 252, 252);"></path>
<path d="M6,12h6V6H6V12z M8,8h2v2H8V8z" id="id_102" style="fill: rgb(255, 255, 255);"></path>
<path d="M6,20h6v-6H6V20z M8,16h2v2H8V16z" id="id_103" style="fill: rgb(255, 255, 255);"></path>
<path d="M6,28h6v-6H6V28z M8,24h2v2H8V24z" id="id_104" style="fill: rgb(255, 255, 255);"></path>
<path d="M6,36h6v-6H6V36z M8,32h2v2H8V32z" id="id_105" style="fill: rgb(255, 255, 255);"></path>
<path d="M6,44h6v-6H6V44z M8,40h2v2H8V40z" id="id_106" style="fill: rgb(255, 255, 255);"></path>
<path d="M38,12h6V6h-6V12z M40,8h2v2h-2V8z" id="id_107" style="fill: rgb(255, 255, 255);"></path>
<path d="M38,20h6v-6h-6V20z M40,16h2v2h-2V16z" id="id_108" style="fill: rgb(255, 255, 255);"></path>
<path d="M38,28h6v-6h-6V28z M40,24h2v2h-2V24z" id="id_109" style="fill: rgb(255, 255, 255);"></path>
<path d="M38,36h6v-6h-6V36z M40,32h2v2h-2V32z" id="id_110" style="fill: rgb(255, 255, 255);"></path>
<path d="M38,44h6v-6h-6V44z M40,40h2v2h-2V40z" id="id_111" style="fill: rgb(255, 255, 255);"></path>
<path d="M19,31.618L32.236,25L19,18.382V31.618z M21,21.618L27.764,25L21,28.382V21.618z" id="id_112" style="fill: rgb(255, 255, 255);"></path>
</g>
<g>
</g>
</svg>